0
SECTION
2
HEADER
9
$INSUNITS
70
4
9
$ACADVER
1
AC1014
9
$HANDSEED
5
FFFF
0
ENDSEC
0
SECTION
2
TABLES
0
TABLE
2
VPORT
5
8
100
AcDbSymbolTable
0
ENDTAB
0
TABLE
2
LTYPE
5
5
100
AcDbSymbolTable
0
LTYPE
5
14
100
AcDbSymbolTableRecord
100
AcDbLinetypeTableRecord
2
BYBLOCK
70
0
0
LTYPE
5
15
100
AcDbSymbolTableRecord
100
AcDbLinetypeTableRecord
2
BYLAYER
70
0
0
ENDTAB
0
TABLE
2
LAYER
5
2
100
AcDbSymbolTable
70
2
0
LAYER
5
50
100
AcDbSymbolTableRecord
100
AcDbLayerTableRecord
2
0
70
0
6
CONTINUOUS
0
ENDTAB
0
TABLE
2
STYLE
5
3
100
AcDbSymbolTable
70
1
0
STYLE
5
11
100
AcDbSymbolTableRecord
100
AcDbTextStyleTableRecord
2
STANDARD
70
0
0
ENDTAB
0
TABLE
2
VIEW
5
6
100
AcDbSymbolTable
70
0
0
ENDTAB
0
TABLE
2
UCS
5
7
100
AcDbSymbolTable
70
0
0
ENDTAB
0
TABLE
2
APPID
5
9
100
AcDbSymbolTable
70
2
0
APPID
5
12
100
AcDbSymbolTableRecord
100
AcDbRegAppTableRecord
2
ACAD
70
0
0
ENDTAB
0
TABLE
2
DIMSTYLE
5
A
100
AcDbSymbolTable
70
1
0
ENDTAB
0
TABLE
2
BLOCK_RECORD
5
1
100
AcDbSymbolTable
70
1
0
BLOCK_RECORD
5
1F
100
AcDbSymbolTableRecord
100
AcDbBlockTableRecord
2
*MODEL_SPACE
0
BLOCK_RECORD
5
1B
100
AcDbSymbolTableRecord
100
AcDbBlockTableRecord
2
*PAPER_SPACE
0
ENDTAB
0
ENDSEC
0
SECTION
2
BLOCKS
0
BLOCK
5
20
100
AcDbEntity
100
AcDbBlockBegin
2
*MODEL_SPACE
0
ENDBLK
5
21
100
AcDbEntity
100
AcDbBlockEnd
0
BLOCK
5
1C
100
AcDbEntity
100
AcDbBlockBegin
2
*PAPER_SPACE
0
ENDBLK
5
1D
100
AcDbEntity
100
AcDbBlockEnd
0
ENDSEC
0
SECTION
2
ENTITIES
0
LWPOLYLINE
5
100
100
AcDbEntity
8
0
100
AcDbPolyline
90
8
70
1
43
0.0
10
-69.010205144336453
20
4.5000000000000053
42
-0.35639395869260065
10
-74.399082578459456
20
8.9000000000000092
42
0.2514037795289637
10
-101.31893932109641
20
41.255208333333329
42
-0.8242237589153667
10
-100.00694578455344
20
48.000000000000007
10
-17.993054215446538
20
48
42
-0.82422375891536548
10
-16.681060678903567
20
41.255208333333343
42
0.25140377952896426
10
-43.600917421540551
20
8.8999999999999986
42
-0.35639395869260054
10
-48.989794855663547
20
4.4999999999999964
0
LWPOLYLINE
5
101
100
AcDbEntity
8
0
100
AcDbPolyline
90
4
70
1
43
0.0
10
2.4999999999999978
20
37.416573867739487
42
-0.53369736798444478
10
33.653703492039313
20
-16.543223424408588
10
8.7374895659359737
20
-2.157840606986543
42
0.40273131482414093
10
2.4999999999999969
20
8.6458082328952948
0
LWPOLYLINE
5
102
100
AcDbEntity
8
0
100
AcDbPolyline
90
4
70
1
43
0.0
10
-2.5000000000000036
20
8.6458082328952912
10
-2.5000000000000155
20
37.416573867739416
42
0.53369736798444578
10
-33.653703492039298
20
-16.54322342440862
10
-8.7374895659359613
20
-2.1578406069865492
42
-0.4027313148241437
0
CIRCLE
5
103
100
AcDbEntity
8
0
100
AcDbCircle
10
-4.0000000000000036
20
57.5
30
0
40
1.5000000000000036
210
0
220
-0
230
1
0
CIRCLE
5
104
100
AcDbEntity
8
0
100
AcDbCircle
10
-4.0000000000000036
20
77.5
30
0
40
1.5000000000000013
210
0
220
-0
230
1
0
LWPOLYLINE
5
105
100
AcDbEntity
8
0
100
AcDbPolyline
90
4
70
1
43
0.0
10
-6.2374895659359675
20
-6.4879676259087482
10
-31.153703492039305
20
-20.873350443330807
42
0.533697367984445
10
31.153703492039313
20
-20.873350443330789
10
6.2374895659359408
20
-6.4879676259087056
42
-0.40273131482414037
0
CIRCLE
5
106
100
AcDbEntity
8
0
100
AcDbCircle
10
-24.000000000000004
20
57.5
30
0
40
1.5000000000000036
210
0
220
-0
230
1
0
CIRCLE
5
107
100
AcDbEntity
8
0
100
AcDbCircle
10
-24.000000000000004
20
77.5
30
0
40
1.5000000000000036
210
0
220
-0
230
1
0
CIRCLE
5
108
100
AcDbEntity
8
0
100
AcDbCircle
10
-38.75
20
52.25
30
0
40
1.4999999999999947
210
0
220
-0
230
1
0
CIRCLE
5
109
100
AcDbEntity
8
0
100
AcDbCircle
10
-69.25
20
52.25
30
0
40
1.4999999999999947
210
0
220
-0
230
1
0
CIRCLE
5
110
100
AcDbEntity
8
0
100
AcDbCircle
10
-69.25
20
82.75
30
0
40
1.4999999999999947
210
0
220
-0
230
1
0
CIRCLE
5
111
100
AcDbEntity
8
0
100
AcDbCircle
10
-38.75
20
82.75
30
0
40
1.5000000000000036
210
0
220
-0
230
1
0
CIRCLE
5
112
100
AcDbEntity
8
0
100
AcDbCircle
10
-64
20
77.5
30
0
40
1.5000000000000036
210
0
220
-0
230
1
0
CIRCLE
5
113
100
AcDbEntity
8
0
100
AcDbCircle
10
-64
20
57.5
30
0
40
1.5000000000000036
210
0
220
-0
230
1
0
CIRCLE
5
114
100
AcDbEntity
8
0
100
AcDbCircle
10
-44
20
57.5
30
0
40
1.5000000000000036
210
0
220
-0
230
1
0
CIRCLE
5
115
100
AcDbEntity
8
0
100
AcDbCircle
10
-44
20
77.5
30
0
40
1.5000000000000036
210
0
220
-0
230
1
0
CIRCLE
5
116
100
AcDbEntity
8
0
100
AcDbCircle
10
-114
20
77.5
30
0
40
1.5000000000000036
210
0
220
-0
230
1
0
CIRCLE
5
117
100
AcDbEntity
8
0
100
AcDbCircle
10
-114
20
57.5
30
0
40
1.5000000000000036
210
0
220
-0
230
1
0
CIRCLE
5
118
100
AcDbEntity
8
0
100
AcDbCircle
10
-94
20
57.5
30
0
40
1.5000000000000036
210
0
220
-0
230
1
0
CIRCLE
5
119
100
AcDbEntity
8
0
100
AcDbCircle
10
-94
20
77.5
30
0
40
1.5000000000000036
210
0
220
-0
230
1
0
CIRCLE
5
120
100
AcDbEntity
8
0
100
AcDbCircle
10
-81.5
20
67.5
30
0
40
1.5000000000000036
210
0
220
-0
230
1
0
CIRCLE
5
121
100
AcDbEntity
8
0
100
AcDbCircle
10
20
20
81.5
30
0
40
1.5000000000000013
210
0
220
-0
230
1
0
CIRCLE
5
122
100
AcDbEntity
8
0
100
AcDbCircle
10
20
20
53.5
30
0
40
1.5000000000000036
210
0
220
-0
230
1
0
CIRCLE
5
123
100
AcDbEntity
8
0
100
AcDbCircle
10
-140
20
81.5
30
0
40
1.5000000000000036
210
0
220
-0
230
1
0
CIRCLE
5
124
100
AcDbEntity
8
0
100
AcDbCircle
10
-140
20
53.5
30
0
40
1.5000000000000036
210
0
220
-0
230
1
0
CIRCLE
5
125
100
AcDbEntity
8
0
100
AcDbCircle
10
-118.00000000000004
20
93.999999999999986
30
0
40
1.4999999999999905
210
0
220
-0
230
1
0
LWPOLYLINE
5
126
100
AcDbEntity
8
0
100
AcDbPolyline
90
4
70
1
43
0.0
10
-151.65370349203931
20
-16.54322342440863
42
-0.53369736798444511
10
-120.50000000000003
20
37.41657386773943
10
-120.5
20
8.6458082328952912
42
0.40273131482414154
10
-126.73748956593599
20
-2.1578406069865519
0
LWPOLYLINE
5
127
100
AcDbEntity
8
0
100
AcDbPolyline
90
4
70
1
43
0.0
10
-2.5000000000000067
20
97.583426132260598
42
-0.53369736798444511
10
-33.653703492039298
20
151.54322342440861
10
-8.737489565935963
20
137.15784060698655
42
0.40273131482414154
10
-2.5000000000000195
20
126.35419176710472
0
LWPOLYLINE
5
128
100
AcDbEntity
8
0
100
AcDbPolyline
90
4
70
1
43
0.0
10
-109.26251043406403
20
-2.157840606986543
10
-84.346296507960687
20
-16.543223424408602
42
0.53369736798444523
10
-115.50000000000003
20
37.416573867739409
10
-115.49999999999999
20
8.645808232895293
42
-0.40273131482414087
0
CIRCLE
5
129
100
AcDbEntity
8
0
100
AcDbCircle
10
-118
20
-4.4408920985006262e-15
30
0
40
2.5
210
0
220
-0
230
1
0
CIRCLE
5
130
100
AcDbEntity
8
0
100
AcDbCircle
10
-1.7763568394002505e-14
20
93.999999999999986
30
0
40
1.4999999999999942
210
0
220
-0
230
1
0
CIRCLE
5
131
100
AcDbEntity
8
0
100
AcDbCircle
10
-113.75735931288074
20
-4.2426406871192857
30
0
40
1.4999999999999989
210
0
220
-0
230
1
0
CIRCLE
5
132
100
AcDbEntity
8
0
100
AcDbCircle
10
-1.5543122344752192e-14
20
41.000000000000007
30
0
40
1.5000000000000002
210
0
220
0
230
1
0
CIRCLE
5
133
100
AcDbEntity
8
0
100
AcDbCircle
10
-118.00000000000003
20
41.000000000000007
30
0
40
1.5000000000000036
210
0
220
-0
230
1
0
LWPOLYLINE
5
134
100
AcDbEntity
8
0
100
AcDbPolyline
90
4
70
1
43
0.0
10
-124.23748956593599
20
-6.4879676259087482
10
-149.15370349203931
20
-20.873350443330811
42
0.53369736798444545
10
-86.846296507960687
20
-20.873350443330789
10
-111.76251043406403
20
-6.4879676259087553
42
-0.40273131482414187
0
LWPOLYLINE
5
135
100
AcDbEntity
8
0
100
AcDbPolyline
90
8
70
1
43
0.0
10
-32
20
72.5
10
-36.000000000000007
20
72.5
42
0.41421356237309509
10
-39
20
69.5
10
-39
20
65.5
42
0.41421356237309509
10
-36.000000000000007
20
62.5
10
-32
20
62.5
42
0.41421356237309509
10
-29.000000000000004
20
65.5
10
-29.000000000000004
20
69.5
42
0.41421356237309509
0
CIRCLE
5
136
100
AcDbEntity
8
0
100
AcDbCircle
10
-4.2426406871192865
20
-4.2426406871192857
30
0
40
1.4999999999999996
210
0
220
-0
230
1
0
CIRCLE
5
137
100
AcDbEntity
8
0
100
AcDbCircle
10
-122.24264068711931
20
-4.2426406871192857
30
0
40
1.4999999999999989
210
0
220
-0
230
1
0
LWPOLYLINE
5
138
100
AcDbEntity
8
0
100
AcDbPolyline
90
8
70
1
43
0.0
10
-69
20
72.5
10
-73
20
72.5
42
0.41421356237309509
10
-76
20
69.5
10
-76
20
65.5
42
0.41421356237309509
10
-73
20
62.5
10
-69
20
62.5
42
0.41421356237309509
10
-66
20
65.5
10
-66
20
69.5
42
0.41421356237309509
0
CIRCLE
5
139
100
AcDbEntity
8
0
100
AcDbCircle
10
-3.5527136788005009e-14
20
2.886579864025407e-14
30
0
40
2.5
210
0
220
-0
230
1
0
CIRCLE
5
140
100
AcDbEntity
8
0
100
AcDbCircle
10
4.2426406871192857
20
-4.2426406871192865
30
0
40
1.5000000000000009
210
0
220
-0
230
1
0
LWPOLYLINE
5
141
100
AcDbEntity
8
0
100
AcDbPolyline
90
8
70
1
43
0.0
10
-19.000000000000004
20
69.5
10
-19.000000000000004
20
65.5
42
0.41421356237309509
10
-16.000000000000004
20
62.5
10
-12.000000000000002
20
62.5
42
0.41421356237309509
10
-9.0000000000000036
20
65.5
10
-9.0000000000000036
20
69.5
42
0.41421356237309509
10
-12.000000000000004
20
72.5
10
-16.000000000000007
20
72.5
42
0.41421356237309509
0
LWPOLYLINE
5
142
100
AcDbEntity
8
0
100
AcDbPolyline
90
8
70
1
43
0.0
10
-49
20
65.5
10
-49
20
69.5
42
0.41421356237309509
10
-52
20
72.5
10
-56
20
72.5
42
0.41421356237309509
10
-59
20
69.5
10
-59
20
65.5
42
0.41421356237309509
10
-56.000000000000007
20
62.5
10
-52.000000000000014
20
62.5
42
0.41421356237309509
0
CIRCLE
5
143
100
AcDbEntity
8
0
100
AcDbCircle
10
-35.50704155516199
20
-20.500000000000007
30
0
40
1.5000000000000024
210
0
220
-0
230
1
0
LWPOLYLINE
5
144
100
AcDbEntity
8
0
100
AcDbPolyline
90
8
70
1
43
0.0
10
-99
20
65.5
10
-99
20
69.5
42
0.41421356237309509
10
-102.00000000000001
20
72.5
10
-106
20
72.5
42
0.41421356237309509
10
-109
20
69.5
10
-109
20
65.5
42
0.41421356237309509
10
-106
20
62.5
10
-102.00000000000001
20
62.5
42
0.41421356237309509
0
LWPOLYLINE
5
145
100
AcDbEntity
8
0
100
AcDbPolyline
90
8
70
1
43
0.0
10
10.999999999999996
20
60.5
10
10.999999999999996
20
74.5
42
0.41421356237309509
10
7.9999999999999964
20
77.5
10
3.9999999999999973
20
77.5
42
0.41421356237309515
10
0.999999999999996
20
74.5
10
0.99999999999999645
20
60.500000000000007
42
0.41421356237309509
10
3.9999999999999969
20
57.5
10
7.9999999999999964
20
57.5
42
0.41421356237309509
0
CIRCLE
5
146
100
AcDbEntity
8
0
100
AcDbCircle
10
35.507041555162004
20
-20.499999999999979
30
0
40
1.5000000000000004
210
-0
220
0
230
1
0
CIRCLE
5
147
100
AcDbEntity
8
0
100
AcDbCircle
10
-153.507041555162
20
-20.500000000000007
30
0
40
1.5000000000000036
210
0
220
-0
230
1
0
CIRCLE
5
148
100
AcDbEntity
8
0
100
AcDbCircle
10
-82.492958444837996
20
-20.499999999999979
30
0
40
1.5000000000000036
210
0
220
-0
230
1
0
CIRCLE
5
149
100
AcDbEntity
8
0
100
AcDbCircle
10
35.507041555161969
20
155.50000000000003
30
0
40
1.4999999999999944
210
0
220
-0
230
1
0
CIRCLE
5
150
100
AcDbEntity
8
0
100
AcDbCircle
10
-35.507041555162004
20
155.5
30
0
40
1.4999999999999944
210
0
220
-0
230
1
0
CIRCLE
5
151
100
AcDbEntity
8
0
100
AcDbCircle
10
-82.492958444838038
20
155.5
30
0
40
1.4999999999999905
210
0
220
-0
230
1
0
CIRCLE
5
152
100
AcDbEntity
8
0
100
AcDbCircle
10
-153.507041555162
20
155.5
30
0
40
1.4999999999999905
210
0
220
-0
230
1
0
CIRCLE
5
153
100
AcDbEntity
8
0
100
AcDbCircle
10
4.2426406871192865
20
4.2426406871192857
30
0
40
1.5000000000000002
210
0
220
-0
230
1
0
CIRCLE
5
154
100
AcDbEntity
8
0
100
AcDbCircle
10
-4.2426406871192857
20
4.2426406871192865
30
0
40
1.5000000000000009
210
0
220
-0
230
1
0
CIRCLE
5
155
100
AcDbEntity
8
0
100
AcDbCircle
10
-122.24264068711929
20
4.2426406871192768
30
0
40
1.4999999999999989
210
0
220
-0
230
1
0
CIRCLE
5
156
100
AcDbEntity
8
0
100
AcDbCircle
10
-113.75735931288074
20
4.2426406871192768
30
0
40
1.4999999999999989
210
0
220
-0
230
1
0
CIRCLE
5
157
100
AcDbEntity
8
0
100
AcDbCircle
10
-4.2426406871192768
20
130.75735931288074
30
0
40
1.4999999999999989
210
0
220
-0
230
1
0
CIRCLE
5
158
100
AcDbEntity
8
0
100
AcDbCircle
10
4.2426406871192945
20
130.75735931288071
30
0
40
1.4999999999999989
210
0
220
-0
230
1
0
CIRCLE
5
159
100
AcDbEntity
8
0
100
AcDbCircle
10
-122.24264068711929
20
130.75735931288074
30
0
40
1.4999999999999971
210
0
220
-0
230
1
0
CIRCLE
5
160
100
AcDbEntity
8
0
100
AcDbCircle
10
-113.75735931288074
20
130.75735931288074
30
0
40
1.4999999999999971
210
0
220
-0
230
1
0
LWPOLYLINE
5
161
100
AcDbEntity
8
0
100
AcDbPolyline
90
8
70
1
43
0.0
10
-126
20
62.5
10
-122.00000000000001
20
62.5
42
0.41421356237309509
10
-119
20
65.5
10
-119
20
69.5
42
0.41421356237309509
10
-122.00000000000001
20
72.5
10
-126
20
72.5
42
0.41421356237309509
10
-129
20
69.5
10
-129
20
65.5
42
0.41421356237309509
0
CIRCLE
5
162
100
AcDbEntity
8
0
100
AcDbCircle
10
-118
20
135
30
0
40
2.5000000000000049
210
0
220
-0
230
1
0
LWPOLYLINE
5
163
100
AcDbEntity
8
0
100
AcDbPolyline
90
4
70
1
43
0.0
10
-111.76251043406407
20
141.48796762590874
10
-86.846296507960716
20
155.87335044333082
42
0.53369736798444534
10
-149.15370349203931
20
155.87335044333076
10
-124.23748956593597
20
141.48796762590874
42
-0.4027313148241416
0
LWPOLYLINE
5
164
100
AcDbEntity
8
0
100
AcDbPolyline
90
4
70
1
43
0.0
10
-84.346296507960687
20
151.54322342440861
42
-0.53369736798444523
10
-115.5
20
97.58342613226057
10
-115.5
20
126.35419176710471
42
0.40273131482414154
10
-109.26251043406404
20
137.15784060698655
0
CIRCLE
5
165
100
AcDbEntity
8
0
100
AcDbCircle
10
-122.24264068711929
20
139.24264068711926
30
0
40
1.4999999999999971
210
0
220
-0
230
1
0
CIRCLE
5
166
100
AcDbEntity
8
0
100
AcDbCircle
10
-113.75735931288074
20
139.24264068711926
30
0
40
1.4999999999999971
210
0
220
-0
230
1
0
CIRCLE
5
167
100
AcDbEntity
8
0
100
AcDbCircle
10
4.2426406871192768
20
139.24264068711926
30
0
40
1.4999999999999989
210
0
220
-0
230
1
0
LWPOLYLINE
5
168
100
AcDbEntity
8
0
100
AcDbPolyline
90
4
70
1
43
0.0
10
-126.73748956593597
20
137.15784060698653
10
-151.65370349203931
20
151.54322342440858
42
0.53369736798444478
10
-120.50000000000004
20
97.583426132260598
10
-120.50000000000004
20
126.35419176710474
42
-0.40273131482413954
0
CIRCLE
5
169
100
AcDbEntity
8
0
100
AcDbCircle
10
-4.4408920985006262e-15
20
135
30
0
40
2.5000000000000049
210
0
220
-0
230
1
0
LWPOLYLINE
5
170
100
AcDbEntity
8
0
100
AcDbPolyline
90
4
70
1
43
0.0
10
2.5
20
126.35419176710471
10
2.5000000000000004
20
97.583426132260598
42
0.53369736798444545
10
33.653703492039291
20
151.54322342440864
10
8.7374895659359684
20
137.15784060698655
42
-0.40273131482414137
0
LWPOLYLINE
5
171
100
AcDbEntity
8
0
100
AcDbPolyline
90
4
70
1
43
0.0
10
6.2374895659359542
20
141.48796762590874
10
31.153703492039291
20
155.87335044333082
42
0.53369736798444511
10
-31.153703492039302
20
155.87335044333079
10
-6.237489565935979
20
141.48796762590874
42
-0.40273131482414154
0
CIRCLE
5
172
100
AcDbEntity
8
0
100
AcDbCircle
10
-4.2426406871192945
20
139.24264068711929
30
0
40
1.4999999999999989
210
0
220
-0
230
1
0
LWPOLYLINE
5
173
100
AcDbEntity
8
0
100
AcDbPolyline
90
8
70
1
43
0.0
10
-48.98979485566354
20
130.50000000000003
42
-0.35639395869259977
10
-43.600917421540544
20
126.10000000000001
42
0.25140377952896392
10
-16.68106067890357
20
93.744791666666686
42
-0.82422375891536814
10
-17.993054215446538
20
87
10
-100.00694578455344
20
87
42
-0.8242237589153677
10
-101.31893932109641
20
93.744791666666686
42
0.25140377952896353
10
-74.399082578459456
20
126.09999999999997
42
-0.35639395869260188
10
-69.010205144336453
20
130.5
0
LWPOLYLINE
5
174
100
AcDbEntity
8
0
100
AcDbPolyline
90
36
70
1
43
0.0
10
-69.010205144336453
20
139.5
42
-0.35639395869260093
10
-74.399082578459442
20
143.90000000000003
42
1.6716672423774022
10
-134.68106067890361
20
93.744791666666686
42
-0.82422375891536892
10
-135.99305421544659
20
87
10
-140.5
20
87
42
0.41421356237309687
10
-146
20
81.499999999999986
10
-146
20
81
42
0.39802547047615111
10
-140.80555555555554
20
75.508494213563196
42
-0.39802547047614806
10
-137.49999999999997
20
72.013899622194288
10
-137.5
20
62.986100377805727
42
-0.3980254704761495
10
-140.80555555555554
20
59.491505786436832
42
0.39802547047615028
10
-146
20
54.000000000000021
10
-146
20
53.5
42
0.4142135623730927
10
-140.5
20
48
10
-135.99305421544659
20
48.000000000000007
42
-0.82422375891536737
10
-134.68106067890361
20
41.255208333333329
42
1.6716672423774031
10
-74.399082578459442
20
-8.9000000000000146
42
-0.35639395869260077
10
-69.010205144336453
20
-4.5000000000000107
10
-48.989794855663547
20
-4.4999999999999947
42
-0.35639395869260054
10
-43.600917421540558
20
-8.9000000000000004
42
1.6716672423774015
10
16.681060678903584
20
41.255208333333329
42
-0.82422375891536892
10
17.993054215446548
20
48
10
22.499999999999996
20
48
42
0.41421356237309598
10
27.999999999999993
20
53.5
10
27.999999999999989
20
54.013899622194295
42
0.398025470476148
10
22.805555555555554
20
59.50540540863112
42
-0.39802547047614917
10
19.499999999999996
20
63.000000000000007
10
19.499999999999979
20
72
42
-0.39802547047614928
10
22.805555555555554
20
75.494594591368909
42
0.39802547047614861
10
27.999999999999989
20
80.986100377805727
10
28
20
81.5
42
0.4142135623730977
10
22.5
20
87
10
17.993054215446545
20
87
42
-0.82422375891536737
10
16.681060678903567
20
93.744791666666686
42
1.6716672423774039
10
-43.600917421540544
20
143.89999999999995
42
-0.35639395869259871
10
-48.989794855663547
20
139.49999999999997
0
ENDSEC
0
SECTION
2
OBJECTS
0
DICTIONARY
5
C
100
AcDbDictionary
3
ACAD_GROUP
350
D
3
ACAD_MLINESTYLE
350
17
0
DICTIONARY
5
D
100
AcDbDictionary
0
DICTIONARY
5
1A
330
C
100
AcDbDictionary
0
DICTIONARY
5
17
100
AcDbDictionary
0
ENDSEC
0
EOF
