0
SECTION
2
HEADER
9
$INSUNITS
70
4
9
$ACADVER
1
AC1014
9
$HANDSEED
5
FFFF
0
ENDSEC
0
SECTION
2
TABLES
0
TABLE
2
VPORT
5
8
100
AcDbSymbolTable
0
ENDTAB
0
TABLE
2
LTYPE
5
5
100
AcDbSymbolTable
0
LTYPE
5
14
100
AcDbSymbolTableRecord
100
AcDbLinetypeTableRecord
2
BYBLOCK
70
0
0
LTYPE
5
15
100
AcDbSymbolTableRecord
100
AcDbLinetypeTableRecord
2
BYLAYER
70
0
0
ENDTAB
0
TABLE
2
LAYER
5
2
100
AcDbSymbolTable
70
2
0
LAYER
5
50
100
AcDbSymbolTableRecord
100
AcDbLayerTableRecord
2
0
70
0
6
CONTINUOUS
0
ENDTAB
0
TABLE
2
STYLE
5
3
100
AcDbSymbolTable
70
1
0
STYLE
5
11
100
AcDbSymbolTableRecord
100
AcDbTextStyleTableRecord
2
STANDARD
70
0
0
ENDTAB
0
TABLE
2
VIEW
5
6
100
AcDbSymbolTable
70
0
0
ENDTAB
0
TABLE
2
UCS
5
7
100
AcDbSymbolTable
70
0
0
ENDTAB
0
TABLE
2
APPID
5
9
100
AcDbSymbolTable
70
2
0
APPID
5
12
100
AcDbSymbolTableRecord
100
AcDbRegAppTableRecord
2
ACAD
70
0
0
ENDTAB
0
TABLE
2
DIMSTYLE
5
A
100
AcDbSymbolTable
70
1
0
ENDTAB
0
TABLE
2
BLOCK_RECORD
5
1
100
AcDbSymbolTable
70
1
0
BLOCK_RECORD
5
1F
100
AcDbSymbolTableRecord
100
AcDbBlockTableRecord
2
*MODEL_SPACE
0
BLOCK_RECORD
5
1B
100
AcDbSymbolTableRecord
100
AcDbBlockTableRecord
2
*PAPER_SPACE
0
ENDTAB
0
ENDSEC
0
SECTION
2
BLOCKS
0
BLOCK
5
20
100
AcDbEntity
100
AcDbBlockBegin
2
*MODEL_SPACE
0
ENDBLK
5
21
100
AcDbEntity
100
AcDbBlockEnd
0
BLOCK
5
1C
100
AcDbEntity
100
AcDbBlockBegin
2
*PAPER_SPACE
0
ENDBLK
5
1D
100
AcDbEntity
100
AcDbBlockEnd
0
ENDSEC
0
SECTION
2
ENTITIES
0
LWPOLYLINE
5
100
100
AcDbEntity
8
0
100
AcDbPolyline
90
4
70
1
43
0.0
10
-106.85953182179207
20
57
42
-0.99999999999999989
10
-106.85953182179207
20
53.999999999999993
10
-121.85953182179207
20
53.999999999999993
42
-0.99999999999999989
10
-121.85953182179207
20
57
0
LWPOLYLINE
5
101
100
AcDbEntity
8
0
100
AcDbPolyline
90
8
70
1
43
0.0
10
-49.859531821792089
20
72.5
10
-58.859531821792089
20
72.5
42
0.41421356237309509
10
-61.859531821792089
20
69.5
10
-61.859531821792089
20
65.5
42
0.41421356237309509
10
-58.859531821792089
20
62.5
10
-49.859531821792089
20
62.5
42
0.41421356237309509
10
-46.859531821792089
20
65.5
10
-46.859531821792089
20
69.5
42
0.41421356237309509
0
LWPOLYLINE
5
102
100
AcDbEntity
8
0
100
AcDbPolyline
90
4
70
1
43
0.0
10
-76.859531821792075
20
57
42
-0.99999999999999989
10
-76.859531821792075
20
53.999999999999993
10
-91.859531821792075
20
53.999999999999993
42
-0.99999999999999989
10
-91.859531821792075
20
57
0
LWPOLYLINE
5
103
100
AcDbEntity
8
0
100
AcDbPolyline
90
8
70
1
43
0.0
10
5.9438350389298691
20
57.500000000000007
10
9.9438350389298673
20
57.500000000000007
42
0.41421356237309509
10
12.943835038929867
20
60.500000000000007
10
12.943835038929867
20
74.500000000000014
42
0.41421356237309509
10
9.9438350389298673
20
77.500000000000014
10
5.9438350389298691
20
77.500000000000014
42
0.41421356237309509
10
2.9438350389298682
20
74.500000000000014
10
2.9438350389298682
20
60.500000000000007
42
0.41421356237309509
0
LWPOLYLINE
5
104
100
AcDbEntity
8
0
100
AcDbPolyline
90
8
70
1
43
0.0
10
-106.85953182179207
20
65.5
10
-106.85953182179207
20
69.5
42
0.41421356237309509
10
-109.85953182179209
20
72.5
10
-118.85953182179207
20
72.5
42
0.41421356237309509
10
-121.85953182179207
20
69.5
10
-121.85953182179207
20
65.5
42
0.41421356237309509
10
-118.85953182179207
20
62.5
10
-109.85953182179209
20
62.5
42
0.41421356237309509
0
LWPOLYLINE
5
105
100
AcDbEntity
8
0
100
AcDbPolyline
90
4
70
1
43
0.0
10
-46.859531821792082
20
57
42
-0.99999999999999989
10
-46.859531821792082
20
53.999999999999993
10
-61.859531821792082
20
53.999999999999993
42
-0.99999999999999989
10
-61.859531821792082
20
57
0
LWPOLYLINE
5
106
100
AcDbEntity
8
0
100
AcDbPolyline
90
4
70
1
43
0.0
10
-31.859531821792082
20
53.999999999999993
42
-0.99999999999999989
10
-31.859531821792082
20
57
10
-16.859531821792082
20
57
42
-0.99999999999999989
10
-16.859531821792082
20
53.999999999999993
0
LWPOLYLINE
5
107
100
AcDbEntity
8
0
100
AcDbPolyline
90
4
70
1
43
0.0
10
-106.85953182179212
20
81.000000000000014
42
-0.99999999999999989
10
-106.85953182179207
20
78
10
-121.85953182179205
20
77.999999999999986
42
-0.99999999999999989
10
-121.85953182179207
20
81.000000000000014
0
LWPOLYLINE
5
108
100
AcDbEntity
8
0
100
AcDbPolyline
90
4
70
1
43
0.0
10
-61.859531821792103
20
77.999999999999986
42
-0.99999999999999989
10
-61.859531821792082
20
81.000000000000014
10
-46.859531821792082
20
81.000000000000014
42
-0.99999999999999989
10
-46.859531821792082
20
78
0
LWPOLYLINE
5
109
100
AcDbEntity
8
0
100
AcDbPolyline
90
4
70
1
43
0.0
10
-76.859531821792075
20
81.000000000000014
42
-0.99999999999999989
10
-76.859531821792075
20
78
10
-91.859531821792046
20
77.999999999999986
42
-0.99999999999999989
10
-91.859531821792075
20
81.000000000000014
0
LWPOLYLINE
5
110
100
AcDbEntity
8
0
100
AcDbPolyline
90
4
70
1
43
0.0
10
-16.859531821792086
20
81.000000000000014
42
-0.99999999999999989
10
-16.859531821792082
20
78
10
-31.859531821792089
20
77.999999999999986
42
-0.99999999999999989
10
-31.859531821792082
20
81.000000000000014
0
LWPOLYLINE
5
111
100
AcDbEntity
8
0
100
AcDbPolyline
90
8
70
1
43
0.0
10
-87.985083678067539
20
72.5
10
-89.859531821792089
20
72.5
42
0.41421356237309509
10
-91.859531821792075
20
70.5
10
-91.859531821792075
20
64.5
42
0.41421356237309509
10
-89.859531821792089
20
62.5
10
-87.985083678067539
20
62.5
42
0.41421356237309509
10
-85.985083678067554
20
64.5
10
-85.985083678067554
20
70.5
42
0.41421356237309509
0
CIRCLE
5
112
100
AcDbEntity
8
0
100
AcDbCircle
10
-81.5
20
67.5
30
0
40
1.5000000000000036
210
0
220
0
230
1
0
LWPOLYLINE
5
113
100
AcDbEntity
8
0
100
AcDbPolyline
90
8
70
1
43
0.0
10
-71.985083678067554
20
72.5
10
-73.859531821792089
20
72.500000000000014
42
0.41421356237309509
10
-75.859531821792089
20
70.5
10
-75.859531821792089
20
64.5
42
0.41421356237309509
10
-73.859531821792089
20
62.500000000000007
10
-71.985083678067539
20
62.5
42
0.41421356237309509
10
-69.985083678067554
20
64.5
10
-69.985083678067554
20
70.5
42
0.41421356237309509
0
CIRCLE
5
114
100
AcDbEntity
8
0
100
AcDbCircle
10
20
20
53.5
30
0
40
1.5000000000000036
210
0
220
0
230
1
0
CIRCLE
5
115
100
AcDbEntity
8
0
100
AcDbCircle
10
-140
20
53.5
30
0
40
1.5000000000000036
210
0
220
0
230
1
0
CIRCLE
5
116
100
AcDbEntity
8
0
100
AcDbCircle
10
20
20
81.5
30
0
40
1.5000000000000036
210
0
220
0
230
1
0
CIRCLE
5
117
100
AcDbEntity
8
0
100
AcDbCircle
10
-140
20
81.5
30
0
40
1.5000000000000036
210
0
220
0
230
1
0
CIRCLE
5
118
100
AcDbEntity
8
0
100
AcDbCircle
10
-28.359531821792089
20
67.5
30
0
40
1.5000000000000036
210
0
220
0
230
1
0
LWPOLYLINE
5
119
100
AcDbEntity
8
0
100
AcDbPolyline
90
20
70
1
43
0.0
10
-146
20
81.499999999999986
42
-0.41421356237308748
10
-140.5
20
87
10
22.5
20
87.000000000000028
42
-0.41421356237309431
10
28.000000000000004
20
81.5
10
27.999999999999993
20
81
42
-0.32995489103961184
10
24.104166666666664
20
75.739139870177539
42
0.32995489103961206
10
19.5
20
69.521759716751006
10
19.5
20
66
42
0.32995489103961206
10
24.104166666666664
20
59.782619846573468
42
-0.32995489103961262
10
28
20
54.521759716750999
10
27.999999999999993
20
53.5
42
-0.4142135623730962
10
22.5
20
47.999999999999986
10
-140.5
20
48.000000000000014
42
-0.4142135623730927
10
-146
20
53.5
10
-146
20
54.000000000000014
42
-0.3299548910396124
10
-142.10416666666666
20
59.260860129822497
42
0.32995489103961162
10
-137.5
20
65.478240283249008
10
-137.49999999999997
20
68.999999999999972
42
0.32995489103961256
10
-142.10416666666666
20
75.217380153426518
42
-0.32995489103960868
10
-146
20
80.478240283248979
0
ENDSEC
0
SECTION
2
OBJECTS
0
DICTIONARY
5
C
100
AcDbDictionary
3
ACAD_GROUP
350
D
3
ACAD_MLINESTYLE
350
17
0
DICTIONARY
5
D
100
AcDbDictionary
0
DICTIONARY
5
1A
330
C
100
AcDbDictionary
0
DICTIONARY
5
17
100
AcDbDictionary
0
ENDSEC
0
EOF
